<?xml version="1.0" encoding="UTF-8" standalone="no"?>
<!-- Created with Inkscape (http://www.inkscape.org/) -->

<svg
   xmlns:dc="http://purl.org/dc/elements/1.1/"
   xmlns:cc="http://creativecommons.org/ns#"
   xmlns:rdf="http://www.w3.org/1999/02/22-rdf-syntax-ns#"
   xmlns:svg="http://www.w3.org/2000/svg"
   xmlns="http://www.w3.org/2000/svg"
   xmlns:sodipodi="http://sodipodi.sourceforge.net/DTD/sodipodi-0.dtd"
   xmlns:inkscape="http://www.inkscape.org/namespaces/inkscape"
   width="300"
   height="300"
   viewBox="0 0 79.374999 79.374999"
   version="1.1"
   id="svg8"
   inkscape:version="0.92.3 (2405546, 2018-03-11)"
   sodipodi:docname="code.svg"
   inkscape:export-filename="/home/ross/Documents/ross_website/homepage/static/images/code.png"
   inkscape:export-xdpi="600"
   inkscape:export-ydpi="600">
  <defs
     id="defs2" />
  <sodipodi:namedview
     id="base"
     pagecolor="#ffffff"
     bordercolor="#666666"
     borderopacity="1.0"
     inkscape:pageopacity="0.0"
     inkscape:pageshadow="2"
     inkscape:zoom="1"
     inkscape:cx="179.13598"
     inkscape:cy="150.85714"
     inkscape:document-units="mm"
     inkscape:current-layer="layer1"
     showgrid="true"
     units="px"
     inkscape:window-width="913"
     inkscape:window-height="690"
     inkscape:window-x="429"
     inkscape:window-y="36"
     inkscape:window-maximized="0">
    <inkscape:grid
       type="xygrid"
       id="grid815" />
  </sodipodi:namedview>
  <metadata
     id="metadata5">
    <rdf:RDF>
      <cc:Work
         rdf:about="">
        <dc:format>image/svg+xml</dc:format>
        <dc:type
           rdf:resource="http://purl.org/dc/dcmitype/StillImage" />
        <dc:title></dc:title>
      </cc:Work>
    </rdf:RDF>
  </metadata>
  <g
     inkscape:label="Layer 1"
     inkscape:groupmode="layer"
     id="layer1"
     transform="translate(0,-217.625)">
    <path
       style="fill:#2e3436;stroke:#2e3436;stroke-width:1;stroke-linecap:butt;stroke-linejoin:miter;stroke-miterlimit:4;stroke-dasharray:none;stroke-opacity:1"
       d="m -43.920856,222.91667 c 18.520835,0 18.520835,0 18.520835,0"
       id="path1483"
       inkscape:connector-curvature="0" />
    <path
       style="fill:#36302e;stroke:#2e3436;stroke-width:1;stroke-linecap:butt;stroke-linejoin:miter;stroke-miterlimit:4;stroke-dasharray:none;stroke-opacity:1"
       d="m -35.983354,228.20833 c 18.520833,0 18.520833,0 18.520833,0"
       id="path1485"
       inkscape:connector-curvature="0" />
    <path
       style="fill:none;stroke:#2e3436;stroke-width:1;stroke-linecap:butt;stroke-linejoin:miter;stroke-miterlimit:4;stroke-dasharray:none;stroke-opacity:1"
       d="m -35.983354,233.5 c 23.8125,0 23.8125,0 23.8125,0 v 0"
       id="path1487"
       inkscape:connector-curvature="0" />
    <path
       style="fill:#36302e;stroke:#2e3436;stroke-width:1;stroke-linecap:butt;stroke-linejoin:miter;stroke-miterlimit:4;stroke-dasharray:none;stroke-opacity:1"
       d="m -35.983354,238.79167 c 18.520833,0 18.520833,0 18.520833,0"
       id="path1489"
       inkscape:connector-curvature="0" />
    <path
       style="fill:#cc0000;stroke:#cc0000;stroke-width:1;stroke-linecap:butt;stroke-linejoin:miter;stroke-miterlimit:4;stroke-dasharray:none;stroke-opacity:1"
       d="m -35.983354,244.08333 c 10.583333,0 10.583333,0 10.583333,0"
       id="path1491"
       inkscape:connector-curvature="0" />
    <path
       style="fill:none;stroke:#2e3436;stroke-width:1;stroke-linecap:butt;stroke-linejoin:miter;stroke-miterlimit:4;stroke-dasharray:none;stroke-opacity:1"
       d="m -43.920856,254.66667 c 39.6874972,0 39.6874972,0 39.6874972,0"
       id="path1493"
       inkscape:connector-curvature="0" />
    <path
       style="fill:none;stroke:#2e3436;stroke-width:1;stroke-linecap:butt;stroke-linejoin:miter;stroke-miterlimit:4;stroke-dasharray:none;stroke-opacity:1"
       d="m -43.920856,259.95833 c 21.166668,0 21.166668,0 21.166668,0"
       id="path1495"
       inkscape:connector-curvature="0" />
    <path
       style="fill:none;stroke:#cc0000;stroke-width:1;stroke-linecap:butt;stroke-linejoin:miter;stroke-miterlimit:4;stroke-dasharray:none;stroke-opacity:1"
       d="m -43.920856,267.89583 c 23.812502,0 23.812502,0 23.812502,0"
       id="path1497"
       inkscape:connector-curvature="0" />
    <path
       style="fill:none;stroke:#2e3436;stroke-width:1;stroke-linecap:butt;stroke-linejoin:miter;stroke-miterlimit:4;stroke-dasharray:none;stroke-opacity:1"
       d="m -43.920856,278.47917 c 39.6874972,0 37.0416657,0 37.0416657,0"
       id="path1499"
       inkscape:connector-curvature="0" />
    <path
       style="fill:none;stroke:#2e3436;stroke-width:1;stroke-linecap:butt;stroke-linejoin:miter;stroke-miterlimit:4;stroke-dasharray:none;stroke-opacity:1"
       d="m -43.920856,283.77083 c 13.229168,0 13.229168,0 13.229168,0"
       id="path1501"
       inkscape:connector-curvature="0" />
    <path
       style="fill:none;stroke:#2e3436;stroke-width:1;stroke-linecap:butt;stroke-linejoin:miter;stroke-miterlimit:4;stroke-dasharray:none;stroke-opacity:1"
       d="m -43.920856,289.0625 c 26.458335,0 26.458335,0 26.458335,0"
       id="path1505"
       inkscape:connector-curvature="0" />
    <path
       style="fill:none;stroke:#000000;stroke-width:1;stroke-linecap:butt;stroke-linejoin:miter;stroke-opacity:1;stroke-miterlimit:4;stroke-dasharray:none"
       d="M 22.224999,244.34793 C 19.306728,240.13198 7.345398,242.47209 8.4666657,237.46876 10.164306,229.89354 26.244642,242.41289 31.75,236.93959 c 4.379915,-4.35441 -5.456197,-16.99768 0.529166,-18.52083 10.877256,-2.76803 8.318573,21.90955 16.933333,29.10417 5.760213,4.81065 16.779006,1.58433 21.166667,7.67291 5.983247,8.30271 6.967762,22.52981 0.79375,30.69167 -8.18152,10.81571 -25.909427,11.19548 -39.422916,10.05417 -8.655332,-0.731 -21.044482,-2.35004 -23.8125001,-10.58334 -3.4340991,-10.21452 13.4688211,-17.74902 15.6104171,-28.31041 0.845848,-4.17134 1.099518,-9.20038 -1.322918,-12.7 z"
       id="path1526"
       inkscape:connector-curvature="0"
       sodipodi:nodetypes="aaaaaaaaaaa" />
    <path
       style="fill:none;stroke:#000000;stroke-width:1;stroke-linecap:butt;stroke-linejoin:miter;stroke-opacity:1;stroke-miterlimit:4;stroke-dasharray:none"
       d="m 31.75,273.1875 c -4.762311,7.09679 4.139857,14.94709 13.229167,13.22917 9.089309,-1.71793 17.272104,-11.91103 15.875,-18.52084 -1.397104,-6.60981 -10.488583,-5.22302 -15.875001,-4.23333 -5.344346,0.98196 -8.466855,2.42821 -13.229166,9.525 z"
       id="path1528"
       inkscape:connector-curvature="0"
       sodipodi:nodetypes="cccac" />
    <ellipse
       style="opacity:1;fill:#2e3436;fill-opacity:0;fill-rule:nonzero;stroke:#2e3436;stroke-width:1;stroke-miterlimit:4;stroke-dasharray:none"
       id="path1530"
       cx="42.068748"
       cy="280.33124"
       rx="3.96875"
       ry="2.6458333" />
  </g>
</svg>
