<?xml version="1.0" encoding="UTF-8" standalone="no"?>
<!-- Created with Inkscape (http://www.inkscape.org/) -->

<svg
   xmlns:dc="http://purl.org/dc/elements/1.1/"
   xmlns:cc="http://creativecommons.org/ns#"
   xmlns:rdf="http://www.w3.org/1999/02/22-rdf-syntax-ns#"
   xmlns:svg="http://www.w3.org/2000/svg"
   xmlns="http://www.w3.org/2000/svg"
   xmlns:sodipodi="http://sodipodi.sourceforge.net/DTD/sodipodi-0.dtd"
   xmlns:inkscape="http://www.inkscape.org/namespaces/inkscape"
   width="22.5mm"
   height="22.5mm"
   viewBox="0 0 22.5 22.5"
   version="1.1"
   id="svg8"
   inkscape:version="0.92.3 (2405546, 2018-03-11)"
   sodipodi:docname="dog.svg"
   inkscape:export-filename="/home/ross/Documents/ross_website/homepage/static/images/dog.png"
   inkscape:export-xdpi="600"
   inkscape:export-ydpi="600">
  <defs
     id="defs2" />
  <sodipodi:namedview
     id="base"
     pagecolor="#ffffff"
     bordercolor="#666666"
     borderopacity="1.0"
     inkscape:pageopacity="0.0"
     inkscape:pageshadow="2"
     inkscape:zoom="2"
     inkscape:cx="-36.566199"
     inkscape:cy="40.661362"
     inkscape:document-units="mm"
     inkscape:current-layer="layer2"
     showgrid="false"
     inkscape:window-width="722"
     inkscape:window-height="449"
     inkscape:window-x="592"
     inkscape:window-y="232"
     inkscape:window-maximized="0">
    <inkscape:grid
       type="xygrid"
       id="grid815" />
  </sodipodi:namedview>
  <metadata
     id="metadata5">
    <rdf:RDF>
      <cc:Work
         rdf:about="">
        <dc:format>image/svg+xml</dc:format>
        <dc:type
           rdf:resource="http://purl.org/dc/dcmitype/StillImage" />
        <dc:title />
      </cc:Work>
    </rdf:RDF>
  </metadata>
  <g
     inkscape:label="Paw"
     inkscape:groupmode="layer"
     id="layer1"
     transform="translate(0,-274.5)"
     style="display:inline">
    <path
       style="fill:#333333;stroke:#000000;stroke-width:0.26249999;stroke-linecap:butt;stroke-linejoin:miter;stroke-miterlimit:4;stroke-dasharray:none;stroke-opacity:1"
       d="m 11.544889,295.86863 c -3.1068804,-0.0239 -5.5305464,-3.57197 -6.7471199,-6.43086 -0.7705698,-1.81079 -1.2574155,-4.41357 0.02796,-5.90373 1.5154975,-1.75696 4.5602355,-1.05702 6.8804989,-1.05424 2.28448,0.003 5.282297,-0.67781 6.771877,1.05424 1.283173,1.49205 0.809691,4.09912 0.02475,5.90373 -1.259699,2.89613 -3.799841,6.4551 -6.957966,6.43086 z"
       id="path4522"
       inkscape:connector-curvature="0"
       sodipodi:nodetypes="aasasaa" />
    <path
       style="fill:#333333;stroke:#000000;stroke-width:0.26249999;stroke-linecap:butt;stroke-linejoin:miter;stroke-miterlimit:4;stroke-dasharray:none;stroke-opacity:1"
       d="m 3.6996297,282.50562 c -0.8665198,0.15279 -1.9733786,0.002 -2.4172208,-1.06059 -0.44384223,-1.06244 0.1259674,-3.73922 1.5273138,-3.98632 1.4013469,-0.2471 2.8523066,2.07337 2.7986089,3.22354 -0.0537,1.15018 -1.0421828,1.67058 -1.9087019,1.82337 z"
       id="path4534"
       inkscape:connector-curvature="0"
       sodipodi:nodetypes="zzzzz" />
    <path
       sodipodi:nodetypes="zzzzz"
       inkscape:connector-curvature="0"
       id="path4536"
       d="m 9.0656326,280.47956 c -0.876538,0.0767 -1.96603,-0.17013 -2.315586,-1.26722 -0.349555,-1.09708 0.451384,-3.71402 1.868934,-3.83804 1.4175504,-0.12401 2.6607474,2.31408 2.5070084,3.4552 -0.153738,1.14111 -1.1838174,1.57338 -2.0603564,1.65006 z"
       style="fill:#333333;stroke:#000000;stroke-width:0.26249999;stroke-linecap:butt;stroke-linejoin:miter;stroke-miterlimit:4;stroke-dasharray:none;stroke-opacity:1" />
    <path
       sodipodi:nodetypes="zzzzz"
       inkscape:connector-curvature="0"
       id="path8472"
       d="m 19.448767,282.50562 c 0.866562,0.15279 1.973474,0.002 2.417338,-1.06059 0.443864,-1.06244 -0.125974,-3.73922 -1.527388,-3.98632 -1.401415,-0.2471 -2.852445,2.07337 -2.798744,3.22354 0.0537,1.15018 1.042233,1.67058 1.908794,1.82337 z"
       style="fill:#333333;stroke:#000000;stroke-width:0.26249999;stroke-linecap:butt;stroke-linejoin:miter;stroke-miterlimit:4;stroke-dasharray:none;stroke-opacity:1" />
    <path
       style="fill:#333333;stroke:#000000;stroke-width:0.26249999;stroke-linecap:butt;stroke-linejoin:miter;stroke-miterlimit:4;stroke-dasharray:none;stroke-opacity:1"
       d="m 14.078075,280.47956 c 0.876539,0.0767 1.966031,-0.17013 2.315587,-1.26722 0.349555,-1.09708 -0.451384,-3.71402 -1.868934,-3.83804 -1.41755,-0.12401 -2.660747,2.31408 -2.507009,3.4552 0.153739,1.14111 1.183818,1.57338 2.060356,1.65006 z"
       id="path8474"
       inkscape:connector-curvature="0"
       sodipodi:nodetypes="zzzzz" />
  </g>
  <g
     inkscape:groupmode="layer"
     id="layer2"
     inkscape:label="Beaker"
     style="display:inline"
     transform="translate(0,-27.5)" />
</svg>
