<?xml version="1.0" encoding="UTF-8" standalone="no"?>
<!-- Created with Inkscape (http://www.inkscape.org/) -->

<svg
   xmlns:dc="http://purl.org/dc/elements/1.1/"
   xmlns:cc="http://creativecommons.org/ns#"
   xmlns:rdf="http://www.w3.org/1999/02/22-rdf-syntax-ns#"
   xmlns:svg="http://www.w3.org/2000/svg"
   xmlns="http://www.w3.org/2000/svg"
   xmlns:sodipodi="http://sodipodi.sourceforge.net/DTD/sodipodi-0.dtd"
   xmlns:inkscape="http://www.inkscape.org/namespaces/inkscape"
   width="22.5mm"
   height="22.5mm"
   viewBox="0 0 22.5 22.5"
   version="1.1"
   id="svg8"
   inkscape:version="0.92.3 (2405546, 2018-03-11)"
   sodipodi:docname="paw_beaker.svg">
  <defs
     id="defs2" />
  <sodipodi:namedview
     id="base"
     pagecolor="#e3f2fd"
     bordercolor="#666666"
     borderopacity="1.0"
     inkscape:pageopacity="0"
     inkscape:pageshadow="2"
     inkscape:zoom="2"
     inkscape:cx="15.5595"
     inkscape:cy="91.446822"
     inkscape:document-units="mm"
     inkscape:current-layer="layer1"
     showgrid="false"
     inkscape:window-width="1366"
     inkscape:window-height="713"
     inkscape:window-x="0"
     inkscape:window-y="27"
     inkscape:window-maximized="1">
    <inkscape:grid
       type="xygrid"
       id="grid815" />
  </sodipodi:namedview>
  <metadata
     id="metadata5">
    <rdf:RDF>
      <cc:Work
         rdf:about="">
        <dc:format>image/svg+xml</dc:format>
        <dc:type
           rdf:resource="http://purl.org/dc/dcmitype/StillImage" />
        <dc:title></dc:title>
      </cc:Work>
    </rdf:RDF>
  </metadata>
  <g
     inkscape:label="Paw"
     inkscape:groupmode="layer"
     id="layer1"
     transform="translate(0,-274.5)"
     style="display:inline">
    <path
       style="fill:#333333;stroke:#000000;stroke-width:0.26249999;stroke-linecap:butt;stroke-linejoin:miter;stroke-miterlimit:4;stroke-dasharray:none;stroke-opacity:1"
       d="m 11.544889,295.86863 c -3.1068804,-0.0239 -5.5305464,-3.57197 -6.7471199,-6.43086 -0.7705698,-1.81079 -1.2574155,-4.41357 0.02796,-5.90373 1.5154975,-1.75696 4.5602355,-1.05702 6.8804989,-1.05424 2.28448,0.003 5.282297,-0.67781 6.771877,1.05424 1.283173,1.49205 0.809691,4.09912 0.02475,5.90373 -1.259699,2.89613 -3.799841,6.4551 -6.957966,6.43086 z"
       id="path4522"
       inkscape:connector-curvature="0"
       sodipodi:nodetypes="aasasaa" />
    <path
       style="fill:#333333;stroke:#000000;stroke-width:0.26249999;stroke-linecap:butt;stroke-linejoin:miter;stroke-miterlimit:4;stroke-dasharray:none;stroke-opacity:1"
       d="m 3.6996297,282.50562 c -0.8665198,0.15279 -1.9733786,0.002 -2.4172208,-1.06059 -0.44384223,-1.06244 0.1259674,-3.73922 1.5273138,-3.98632 1.4013469,-0.2471 2.8523066,2.07337 2.7986089,3.22354 -0.0537,1.15018 -1.0421828,1.67058 -1.9087019,1.82337 z"
       id="path4534"
       inkscape:connector-curvature="0"
       sodipodi:nodetypes="zzzzz" />
    <path
       sodipodi:nodetypes="zzzzz"
       inkscape:connector-curvature="0"
       id="path4536"
       d="m 9.0656326,280.47956 c -0.876538,0.0767 -1.96603,-0.17013 -2.315586,-1.26722 -0.349555,-1.09708 0.451384,-3.71402 1.868934,-3.83804 1.4175504,-0.12401 2.6607474,2.31408 2.5070084,3.4552 -0.153738,1.14111 -1.1838174,1.57338 -2.0603564,1.65006 z"
       style="fill:#333333;stroke:#000000;stroke-width:0.26249999;stroke-linecap:butt;stroke-linejoin:miter;stroke-miterlimit:4;stroke-dasharray:none;stroke-opacity:1" />
    <path
       sodipodi:nodetypes="zzzzz"
       inkscape:connector-curvature="0"
       id="path8472"
       d="m 19.448767,282.50562 c 0.866562,0.15279 1.973474,0.002 2.417338,-1.06059 0.443864,-1.06244 -0.125974,-3.73922 -1.527388,-3.98632 -1.401415,-0.2471 -2.852445,2.07337 -2.798744,3.22354 0.0537,1.15018 1.042233,1.67058 1.908794,1.82337 z"
       style="fill:#333333;stroke:#000000;stroke-width:0.26249999;stroke-linecap:butt;stroke-linejoin:miter;stroke-miterlimit:4;stroke-dasharray:none;stroke-opacity:1" />
    <path
       style="fill:#333333;stroke:#000000;stroke-width:0.26249999;stroke-linecap:butt;stroke-linejoin:miter;stroke-miterlimit:4;stroke-dasharray:none;stroke-opacity:1"
       d="m 14.078075,280.47956 c 0.876539,0.0767 1.966031,-0.17013 2.315587,-1.26722 0.349555,-1.09708 -0.451384,-3.71402 -1.868934,-3.83804 -1.41755,-0.12401 -2.660747,2.31408 -2.507009,3.4552 0.153739,1.14111 1.183818,1.57338 2.060356,1.65006 z"
       id="path8474"
       inkscape:connector-curvature="0"
       sodipodi:nodetypes="zzzzz" />
    <path
       style="opacity:1;fill:#80e5ff;fill-opacity:1;fill-rule:nonzero;stroke:#ffffff;stroke-width:0.16535433;stroke-miterlimit:4;stroke-dasharray:none"
       d="m 39.951275,70.140227 c -6.929534,-0.05782 -7.853009,-0.08827 -8.124999,-0.267931 -0.684831,-0.452359 -2.545162,-2.177991 -3.293478,-3.055013 -2.148108,-2.51757 -2.345106,-4.281945 -0.822582,-7.367288 1.352487,-2.740769 4.548815,-6.266939 8.652942,-9.545874 l 1.34375,-1.07357 v -5.250542 -5.250542 l -1.214619,-1.219193 -1.214619,-1.219194 0.491963,-0.503816 0.491963,-0.503816 1.472656,1.46882 1.472656,1.468819 v 5.087784 5.087784 l -0.40625,0.05042 -0.40625,0.05042 0.40625,0.02 0.40625,0.02001 v 0.720036 0.720035 l -0.901834,0.686215 c -1.792914,1.364246 -3.318542,2.70535 -5.038744,4.429307 -3.431158,3.438652 -5.184548,6.37996 -5.03508,8.446339 0.08666,1.198135 1.16905,2.690168 3.308388,4.560505 l 1.029306,0.899881 11.328215,0.0916 11.328215,0.0916 0.920339,-0.704923 c 1.27084,-0.973386 3.0797,-2.896755 3.480265,-3.700583 0.574434,-1.152739 0.407187,-2.382209 -0.585275,-4.302505 -1.364458,-2.640062 -4.858235,-6.378759 -8.800611,-9.41755 l -1.404317,-1.08245 -0.0019,-0.71083 c -0.0019,-0.708765 -7.5e-4,-0.710977 0.404316,-0.761245 l 0.40625,-0.05042 -0.40625,-0.02 -0.406246,-0.02 V 42.920622 37.82875 l 1.46516,-1.468987 1.46516,-1.468987 0.47234,0.461228 c 0.259787,0.253675 0.47234,0.523629 0.47234,0.599898 0,0.07627 -0.534375,0.660185 -1.1875,1.297593 l -1.1875,1.158923 2.5e-4,5.208289 2.5e-4,5.208288 1.030985,0.812113 c 4.667941,3.676969 8.421025,7.932759 9.48052,10.750387 1.124329,2.990047 0.750435,4.478548 -1.761344,7.012051 -0.722256,0.728502 -1.773934,1.67069 -2.337062,2.09375 l -1.02384,0.769199 -3.976129,-0.02852 c -2.186871,-0.01568 -7.494289,-0.05787 -11.794263,-0.09375 z"
       id="path3747"
       inkscape:connector-curvature="0"
       transform="matrix(0.26458333,0,0,0.26458333,0,274.5)" />
    <path
       style="opacity:1;fill:#80e5ff;fill-opacity:1;fill-rule:nonzero;stroke:#ffffff;stroke-width:0.16535433;stroke-miterlimit:4;stroke-dasharray:none"
       d="M 37.196351,70.14083 31.998294,70.075 31.122235,69.358131 c -1.098882,-0.899203 -2.851758,-2.711734 -3.413926,-3.530111 -0.937548,-1.364837 -1.220368,-2.769459 -0.864077,-4.291418 0.239235,-1.021935 1.420606,-3.280857 2.3987,-4.586602 1.660115,-2.216237 4.555447,-5.083703 7.282622,-7.212534 l 1.168931,-0.912466 0.0062,-5.185366 0.0062,-5.185366 -1.251557,-1.25583 -1.251556,-1.255831 0.549781,-0.53957 0.549782,-0.539569 1.447833,1.480766 1.447834,1.480766 0.0039,5.08583 0.0039,5.08583 -0.40625,0.05042 -0.40625,0.05042 0.40625,0.02 0.406258,0.02001 v 0.720036 0.720035 l -0.901834,0.686215 c -1.792914,1.364246 -3.318542,2.70535 -5.038744,4.429307 -3.431158,3.438652 -5.184548,6.37996 -5.03508,8.446339 0.08666,1.198135 1.16905,2.690168 3.308388,4.560505 l 1.029306,0.899881 11.328215,0.0916 11.328215,0.0916 0.920339,-0.704923 c 1.27084,-0.973386 3.0797,-2.896755 3.480265,-3.700583 0.574434,-1.152739 0.407187,-2.382209 -0.585275,-4.302505 -1.364458,-2.640062 -4.858235,-6.378759 -8.800611,-9.41755 l -1.404317,-1.08245 -0.0019,-0.71083 c -0.0019,-0.708765 -7.5e-4,-0.710977 0.404316,-0.761245 l 0.40625,-0.05042 -0.40625,-0.02 -0.406246,-0.02 v -5.095704 -5.095704 l 1.478242,-1.474392 1.478243,-1.474391 0.52134,0.53713 0.52134,0.53713 -1.249583,1.25385 -1.249582,1.253849 v 5.145172 5.145172 l 1.65625,1.342799 c 1.969757,1.596972 5.469957,5.060901 6.618676,6.550089 1.804191,2.338935 2.69976,4.270058 2.817105,6.074553 0.0825,1.268675 -0.127915,1.957562 -0.957301,3.134143 -0.687248,0.974939 -2.539129,2.805042 -3.809621,3.764821 l -0.862392,0.651483 -6.700108,-0.02792 c -3.68506,-0.01535 -9.039234,-0.05754 -11.898166,-0.09375 z"
       id="path3749"
       inkscape:connector-curvature="0"
       transform="matrix(0.26458333,0,0,0.26458333,0,274.5)" />
  </g>
  <g
     inkscape:groupmode="layer"
     id="layer2"
     inkscape:label="Beaker"
     style="display:inline"
     transform="translate(0,-27.5)">
    <path
       style="fill:#333333;fill-opacity:1;stroke:#ffffff;stroke-width:0.41505408;stroke-linecap:butt;stroke-linejoin:miter;stroke-miterlimit:4;stroke-dasharray:none;stroke-opacity:1"
       d="m 9.4528736,36.856987 0.7321094,0.732111 v 2.928434 c 0,0 -2.9201044,2.097977 -2.9284374,3.660551 -0.0038,0.704203 1.30208,1.663669 1.30208,1.663669 l 6.1086174,0.05174 c 0,0 1.386879,-0.934171 1.397734,-1.656575 0.02378,-1.582557 -2.951556,-3.719388 -2.951556,-3.719388 v -2.928435 l 0.732109,-0.732111"
       id="path8476"
       inkscape:connector-curvature="0"
       sodipodi:nodetypes="cccaccaccc" />
    <path
       sodipodi:nodetypes="ccaccacc"
       inkscape:connector-curvature="0"
       id="path8499"
       d="m 10.184983,40.224698 v 0.292834 c 0,0 -2.9201044,2.097977 -2.9284374,3.660551 -0.0038,0.704203 1.30208,1.663669 1.30208,1.663669 l 6.1086174,0.05174 c 0,0 1.386879,-0.934171 1.397734,-1.656575 0.02378,-1.582557 -2.951556,-3.719388 -2.951556,-3.719388 v -0.292835"
       style="fill:#ff5555;stroke:#ffffff;stroke-width:0.41505408;stroke-linecap:butt;stroke-linejoin:miter;stroke-miterlimit:4;stroke-dasharray:none;stroke-opacity:1" />
  </g>
</svg>
