<?xml version="1.0" encoding="UTF-8" standalone="no"?>
<!-- Created with Inkscape (http://www.inkscape.org/) -->

<svg
   xmlns:dc="http://purl.org/dc/elements/1.1/"
   xmlns:cc="http://creativecommons.org/ns#"
   xmlns:rdf="http://www.w3.org/1999/02/22-rdf-syntax-ns#"
   xmlns:svg="http://www.w3.org/2000/svg"
   xmlns="http://www.w3.org/2000/svg"
   xmlns:sodipodi="http://sodipodi.sourceforge.net/DTD/sodipodi-0.dtd"
   xmlns:inkscape="http://www.inkscape.org/namespaces/inkscape"
   width="300"
   height="300"
   viewBox="0 0 79.374999 79.374999"
   version="1.1"
   id="svg8"
   inkscape:version="0.92.3 (2405546, 2018-03-11)"
   sodipodi:docname="cell.svg"
   inkscape:export-filename="/home/ross/Documents/ross_website/homepage/static/images/graph.png"
   inkscape:export-xdpi="600"
   inkscape:export-ydpi="600">
  <defs
     id="defs2" />
  <sodipodi:namedview
     id="base"
     pagecolor="#ffffff"
     bordercolor="#666666"
     borderopacity="1.0"
     inkscape:pageopacity="0.0"
     inkscape:pageshadow="2"
     inkscape:zoom="1"
     inkscape:cx="179.13598"
     inkscape:cy="142.85714"
     inkscape:document-units="mm"
     inkscape:current-layer="layer1"
     showgrid="false"
     units="px"
     inkscape:window-width="1366"
     inkscape:window-height="713"
     inkscape:window-x="0"
     inkscape:window-y="27"
     inkscape:window-maximized="1">
    <inkscape:grid
       type="xygrid"
       id="grid815" />
  </sodipodi:namedview>
  <metadata
     id="metadata5">
    <rdf:RDF>
      <cc:Work
         rdf:about="">
        <dc:format>image/svg+xml</dc:format>
        <dc:type
           rdf:resource="http://purl.org/dc/dcmitype/StillImage" />
        <dc:title></dc:title>
      </cc:Work>
    </rdf:RDF>
  </metadata>
  <g
     inkscape:label="Layer 1"
     inkscape:groupmode="layer"
     id="layer1"
     transform="translate(0,-217.625)">
    <path
       style="fill:#d3d7cf;stroke:#2e3436;stroke-width:1;stroke-linecap:butt;stroke-linejoin:miter;stroke-opacity:1;stroke-miterlimit:4;stroke-dasharray:none"
       d="m 9.7895813,235.61668 c 1.6238867,-4.25347 2.6373237,-10.99267 7.1437497,-11.64166 8.467504,-1.21945 -0.04412,11.57468 19.049999,17.19792 11.389882,3.35433 0.789271,-20.31397 31.75,-7.9375 15.745099,6.29406 5.743161,38.13391 -5.820833,50.53541 -4.588928,4.92128 -13.118204,3.9146 -19.84375,3.70417 -10.091304,-0.31573 -21.561136,-1.00714 -29.368749,-7.40834 -4.7590408,-3.90177 -7.123238,-10.5688 -7.9374983,-16.66874 -1.2451716,-9.32807 1.6705344,-18.98939 5.0270816,-27.78126 z"
       id="path851"
       inkscape:connector-curvature="0"
       sodipodi:nodetypes="aassaaaaa" />
    <path
       style="fill:#cc0000;stroke:#2e3436;stroke-width:1;stroke-linecap:butt;stroke-linejoin:miter;stroke-opacity:1;stroke-miterlimit:4;stroke-dasharray:none"
       d="m 30.95625,268.16042 c 0.746666,-5.50303 6.799136,-9.96795 12.170833,-11.37709 6.496864,-1.70431 16.180063,-1.0306 19.579166,4.7625 2.501407,4.26315 -0.455615,10.81052 -3.96875,14.2875 -4.865634,4.81556 -13.487402,7.83349 -19.843749,5.29167 -4.704914,-1.88144 -8.618782,-7.94344 -7.9375,-12.96458 z"
       id="path853"
       inkscape:connector-curvature="0"
       sodipodi:nodetypes="aaaaaa" />
    <ellipse
       style="opacity:1;fill:#a40000;fill-opacity:1;fill-rule:nonzero;stroke:#2e3436;stroke-width:0.5;stroke-miterlimit:4;stroke-dasharray:none"
       id="path855"
       cx="43.65625"
       cy="275.56876"
       rx="4.4979167"
       ry="2.3812499" />
  </g>
</svg>
